<svg width="17" height="17" viewBox="0 0 17 17" fill="none" xmlns="http://www.w3.org/2000/svg">
<path d="M7.22411 1.89058C7.67314 0.508612 9.62825 0.50861 10.0773 1.89058L11.0081 4.75532C11.2089 5.37336 11.7848 5.7918 12.4347 5.7918H15.4468C16.8999 5.7918 17.5041 7.65122 16.3285 8.50532L13.8916 10.2758C13.3659 10.6578 13.1459 11.3348 13.3467 11.9529L14.2775 14.8176C14.7266 16.1996 13.1448 17.3488 11.9693 16.4947L9.53237 14.7242C9.00664 14.3422 8.29475 14.3422 7.76902 14.7242L5.33212 16.4947C4.15655 17.3488 2.57483 16.1996 3.02386 14.8176L3.95467 11.9529C4.15548 11.3348 3.93549 10.6578 3.40976 10.2758L0.972866 8.50532C-0.202704 7.65122 0.401459 5.7918 1.85454 5.7918H4.86671C5.51655 5.7918 6.09249 5.37336 6.2933 4.75532L7.22411 1.89058Z" fill="#FFB800"/>
</svg>
